<svg width="100" height="29" viewBox="0 0 100 29" fill="none" xmlns="http://www.w3.org/2000/svg">
<path d="M54.5814 20.1896H46.6859L45.2185 23.8174H39.8303L48.0725 5.14441H53.2744L61.5436 23.8174H56.0488L54.5814 20.1896ZM53.0344 16.2948L50.6336 10.3196L48.2321 16.2948H53.0344Z" fill="white"/>
<path d="M62.4237 6.98512C61.8545 6.46958 61.5699 5.82946 61.5699 5.06477C61.5699 4.30008 61.8545 3.65983 62.4237 3.14402C62.9925 2.62847 63.7394 2.37057 64.6644 2.3703C65.5894 2.37003 66.3363 2.6146 66.9051 3.10402C67.474 3.59316 67.7586 4.22008 67.7589 4.98477C67.7589 5.78475 67.4743 6.44722 66.9051 6.97219C66.336 7.49716 65.5891 7.7591 64.6644 7.75802C63.7397 7.75802 62.9928 7.50039 62.4237 6.98512ZM62.1307 9.35919H67.1989V23.8174H62.1307V9.35919Z" fill="white"/>
<path d="M71.4929 23.6436C70.319 23.368 69.3763 23.0079 68.6647 22.5632L70.185 19.0954C70.8428 19.5051 71.6253 19.8297 72.5324 20.0691C73.411 20.3057 74.3166 20.4268 75.2265 20.4295C76.0448 20.4295 76.6273 20.3449 76.9739 20.1758C77.3206 20.0066 77.4939 19.7621 77.4939 19.4421C77.4939 19.1221 77.285 18.8956 76.8673 18.7625C76.4495 18.6294 75.787 18.5004 74.8799 18.3754C73.7235 18.2332 72.7404 18.0464 71.9304 17.8151C71.1281 17.5885 70.4037 17.1456 69.8364 16.5347C69.2513 15.913 68.9588 15.0418 68.9588 13.921C68.9588 12.9961 69.2345 12.1735 69.7859 11.4532C70.3372 10.733 71.1419 10.164 72.1999 9.74619C73.2577 9.32843 74.5247 9.11941 76.001 9.11914C77.0496 9.11909 78.0954 9.22631 79.1222 9.43913C80.1532 9.653 81.0152 9.95535 81.7079 10.3462L80.1908 13.7873C78.9108 13.0762 77.5237 12.7205 76.0293 12.7202C75.2291 12.7202 74.6423 12.8136 74.269 13.0002C73.8956 13.1869 73.7088 13.4315 73.7086 13.734C73.7086 14.072 73.913 14.3077 74.3219 14.441C74.7308 14.5743 75.4067 14.7121 76.3497 14.8543C77.5402 15.0326 78.5272 15.2372 79.3104 15.468C80.0922 15.6988 80.7972 16.1364 81.3508 16.7347C81.9285 17.3485 82.2177 18.2067 82.2182 19.3092C82.226 20.1927 81.9345 21.0528 81.3912 21.7495C80.8395 22.4703 80.026 23.035 78.9504 23.4436C77.8749 23.8522 76.5812 24.0566 75.0693 24.0569C73.8652 24.0579 72.665 23.9192 71.4929 23.6436Z" fill="white"/>
<path d="M99.0219 9.35913V28.9921H93.9534V22.5365C92.9751 23.5506 91.6325 24.0574 89.9256 24.0569C88.6093 24.0569 87.4134 23.7502 86.3379 23.1369C85.2623 22.5236 84.4088 21.6521 83.7771 20.5225C83.1455 19.3936 82.8298 18.0821 82.8301 16.588C82.8303 15.0939 83.146 13.7824 83.7771 12.6536C84.4082 11.5242 85.2618 10.6528 86.3379 10.0395C87.4139 9.4262 88.6098 9.11941 89.9256 9.11914C91.8283 9.11914 93.2509 9.67939 94.1934 10.7999V9.35913H99.0219ZM93.1801 19.1112C93.749 18.4973 94.0335 17.6569 94.0338 16.59C94.0341 15.5231 93.7495 14.683 93.1801 14.0697C92.6109 13.4559 91.8818 13.1489 90.9927 13.1489C90.1035 13.1489 89.3744 13.4559 88.8053 14.0697C88.2359 14.683 87.9513 15.5231 87.9516 16.59C87.9518 17.6569 88.2364 18.4973 88.8053 19.1112C89.3741 19.7245 90.1033 20.0312 90.9927 20.0312C91.8821 20.0312 92.6112 19.7245 93.1801 19.1112Z" fill="white"/>
<path d="M32.4563 9.3884C32.4567 10.3416 32.3067 11.2888 32.0119 12.1952C32.0087 12.2025 32.0062 12.21 32.0046 12.2178C31.9743 12.2857 31.8797 12.5128 31.7662 12.8606C31.4975 13.6893 31.108 15.2097 31.18 16.9155C31.1964 17.2765 31.233 17.6364 31.2894 17.9934C31.2915 17.9983 31.2929 18.0035 31.2935 18.0088C31.3687 18.4625 31.4839 18.9086 31.6377 19.3421C30.8547 18.7898 30.2305 18.0298 29.7388 17.2237C29.4459 16.7371 29.1905 16.2288 28.9748 15.7034C28.6804 14.9953 28.4401 14.266 28.256 13.5216C28.2546 13.5201 28.2535 13.5183 28.2529 13.5164C28.2523 13.5144 28.2521 13.5123 28.2524 13.5103C28.215 13.2172 28.1542 12.9275 28.0706 12.6441C28.0687 12.6393 28.0675 12.6342 28.0669 12.6291C27.9805 12.3199 27.8706 12.0177 27.738 11.7253V11.7176C27.4984 11.1833 27.1865 10.6844 26.8112 10.2348C26.8067 10.2269 26.8016 10.2193 26.7958 10.2122C26.7922 10.2086 26.7886 10.2009 26.7845 10.1973C26.4253 9.65628 22.1382 3.86169 5.91321 8.28702C6.47155 7.67339 7.06114 7.08893 7.67962 6.53596C10.7676 3.77564 15.2083 1.2751 21.472 0.454519C21.7952 0.414117 22.1184 0.373714 22.4517 0.340987C23.2081 0.265434 23.9721 0.254121 24.7248 0.37129C26.8769 0.705763 28.8387 1.79819 30.2563 3.45158C31.674 5.10496 32.4542 7.21047 32.4563 9.3884Z" fill="url(#paint0_linear_147_712)"/>
<path d="M27.2475 16.3446C26.8345 15.4473 26.5212 14.5074 26.3134 13.5418C25.1789 8.32176 20.7782 11.1358 19.596 12.8146C18.455 14.442 14.9775 19.8091 14.7618 20.1457C14.7585 20.1511 14.7547 20.1563 14.7505 20.161C14.7016 20.2253 14.6523 20.2855 14.603 20.3501C13.1618 22.2086 11.5849 22.7557 10.151 22.6797L10.1551 22.6761C9.93002 22.6668 5.6162 21.8781 6.59193 17.0508C6.08124 17.9966 5.80125 18.7263 5.68812 19.052C5.64772 19.1732 5.62751 19.2334 5.62751 19.2334C5.507 19.5932 5.41897 19.9632 5.36449 20.3388C5.30694 20.7153 5.28167 21.0961 5.28894 21.4769C5.31625 22.7004 5.68302 23.8922 6.3483 24.9193C7.36565 26.5002 9.03752 27.6347 10.9817 27.9091C11.9444 27.8012 12.8833 27.538 13.7618 27.1297C14.8773 26.6117 15.8381 25.8174 16.6304 24.8793V24.8756L16.6341 24.8716V24.868H16.6377C16.6567 24.8453 16.706 24.7872 16.7739 24.7063C17.266 24.1358 17.7983 23.6012 18.3665 23.1064L18.3702 23.1028C18.51 22.8947 24.2633 14.4788 29.0935 19.2241C28.3497 18.353 27.7286 17.3841 27.2475 16.3446ZM8.53612 25.7988L8.54379 25.7875C8.55632 25.8005 8.53612 25.7968 8.53612 25.7968V25.7988Z" fill="url(#paint1_linear_147_712)"/>
<path d="M26.7861 10.1981C25.7516 8.95369 24.297 8.13152 22.6973 7.88704C22.1527 7.80381 21.5931 7.81108 21.0444 7.86441C20.802 7.89067 20.5641 7.91734 20.3334 7.94724C16.8793 8.40136 14.1869 9.55487 12.1029 10.9621C10.6838 11.9242 9.41541 13.0918 8.33935 14.4266C8.34299 14.4307 8.33935 14.4307 8.33572 14.4343C7.6774 15.2526 7.0938 16.1283 6.59193 17.0508C6.08124 17.9966 5.80125 18.7263 5.68812 19.052C5.64771 19.1732 5.62751 19.2334 5.62751 19.2334C5.507 19.5933 5.41897 19.9632 5.36449 20.3388C5.30694 20.7153 5.28167 21.0961 5.28894 21.477C5.31625 22.7004 5.68302 23.8922 6.3483 24.9193C7.36564 26.5002 9.03752 27.6348 10.9817 27.9091C10.3476 27.9843 9.70738 27.9931 9.07146 27.9354C4.48896 27.5216 0.895527 23.6405 0.800984 19.0451C0.776238 17.9995 0.933737 16.9576 1.26643 15.966C1.26643 15.966 1.29269 15.8791 1.35329 15.7167C1.58399 15.0509 2.32538 13.1309 3.88372 10.8635C4.50069 9.95926 5.17932 9.09866 5.91478 8.28783C22.1414 3.8625 26.4269 9.65709 26.7861 10.1981Z" fill="url(#paint2_linear_147_712)"/>
<path d="M34.4304 22.9371L34.4231 22.9408C34.2942 22.9977 32.3048 23.8563 29.7707 23.4026C29.3228 23.3241 28.8825 23.2075 28.4544 23.0543C28.0023 22.8932 27.5646 22.6946 27.1457 22.4604C26.6917 22.206 26.2511 21.9284 25.8258 21.6285C25.8021 21.6133 25.7793 21.5969 25.7575 21.5792C24.2105 20.5202 22.5725 20.679 21.12 21.3032C20.0724 21.7533 19.1193 22.4491 18.3666 23.1036C18.5064 22.8955 24.2597 14.4796 29.0899 19.2249C29.0983 19.2329 29.1058 19.2417 29.1125 19.2512C29.2741 19.4403 29.4414 19.6221 29.6079 19.7922C31.83 22.0996 34.2716 22.8899 34.4231 22.9355C34.4253 22.9369 34.4278 22.9374 34.4304 22.9371Z" fill="url(#paint3_linear_147_712)"/>
<path d="M29.6063 19.79C29.4398 19.6199 29.2734 19.4381 29.111 19.249C29.2865 19.4195 29.4518 19.6002 29.6063 19.79Z" fill="url(#paint4_linear_147_712)"/>
<defs>
<linearGradient id="paint0_linear_147_712" x1="17.4498" y1="1.25369" x2="22.4768" y2="21.6034" gradientUnits="userSpaceOnUse">
<stop stop-color="#24E5FF"/>
<stop offset="1" stop-color="#00B1FF"/>
</linearGradient>
<linearGradient id="paint1_linear_147_712" x1="7.19555" y1="23.5706" x2="23.1272" y2="15.6727" gradientUnits="userSpaceOnUse">
<stop stop-color="#4225A3"/>
<stop offset="1" stop-color="#C696D2"/>
</linearGradient>
<linearGradient id="paint2_linear_147_712" x1="8.73045" y1="25.1932" x2="14.3816" y2="12.1891" gradientUnits="userSpaceOnUse">
<stop stop-color="#4BABFF"/>
<stop offset="1" stop-color="#1B00BA"/>
</linearGradient>
<linearGradient id="paint3_linear_147_712" x1="29.5436" y1="26.6522" x2="23.8246" y2="20.0483" gradientUnits="userSpaceOnUse">
<stop stop-color="#FCBA00"/>
<stop offset="1" stop-color="#F98800"/>
</linearGradient>
<linearGradient id="paint4_linear_147_712" x1="29.2831" y1="19.207" x2="29.4374" y2="19.832" gradientUnits="userSpaceOnUse">
<stop stop-color="#FF326E"/>
<stop offset="1" stop-color="#FFBD98"/>
</linearGradient>
</defs>
</svg>
