<svg width="289" height="106" viewBox="0 0 289 106" fill="none" xmlns="http://www.w3.org/2000/svg">
<g filter="url(#filter0_i_166_612)">
<g clip-path="url(#clip0_166_612)">
<rect x="183.546" y="0.380371" width="104.914" height="104.914" rx="26.2285" fill="url(#paint0_linear_166_612)"/>
<g filter="url(#filter1_d_166_612)">
<path d="M256.863 33.5681C256.82 33.2509 256.542 33.0753 256.312 33.056C254.619 32.9287 252.925 32.8025 251.232 32.6773C251.232 32.6773 247.862 29.3324 247.493 28.9622C247.123 28.5922 246.4 28.7047 246.12 28.7873C246.078 28.7995 245.383 29.0139 244.234 29.3696C243.109 26.1309 241.122 23.1548 237.628 23.1548C237.532 23.1548 237.432 23.1587 237.333 23.1643C236.339 21.8501 235.108 21.2791 234.045 21.2791C225.905 21.2791 222.016 31.4549 220.796 36.626C217.633 37.6061 215.386 38.3029 215.099 38.393C213.334 38.9468 213.278 39.0025 213.046 40.6661C212.872 41.9256 208.252 77.6511 208.252 77.6511L244.249 84.3956L263.753 80.1762C263.753 80.1762 256.906 33.8853 256.863 33.5681ZM242.245 29.9849L239.199 30.9276C239.2 30.713 239.201 30.5018 239.201 30.2708C239.201 28.258 238.921 26.6374 238.473 25.3527C240.274 25.5786 241.473 27.6273 242.245 29.9849ZM236.24 25.7518C236.74 27.0061 237.066 28.8062 237.066 31.2353C237.066 31.3596 237.065 31.4732 237.064 31.5881C235.083 32.2017 232.93 32.8678 230.773 33.5362C231.984 28.8614 234.255 26.6035 236.24 25.7518ZM233.821 23.4624C234.173 23.4624 234.526 23.5817 234.865 23.8148C232.256 25.0424 229.46 28.1342 228.279 34.3083L223.307 35.8484C224.69 31.139 227.974 23.4624 233.821 23.4624Z" fill="#95BF46"/>
<path d="M256.312 33.056C254.619 32.9287 252.925 32.8025 251.232 32.6773C251.232 32.6773 247.862 29.3324 247.493 28.9622C247.354 28.8244 247.168 28.7538 246.973 28.7234L244.251 84.3952L263.753 80.1762C263.753 80.1762 256.906 33.8853 256.863 33.5681C256.82 33.2509 256.542 33.0753 256.312 33.056Z" fill="#5E8E3E"/>
<path d="M237.628 43.833L235.223 50.9869C235.223 50.9869 233.116 49.8623 230.533 49.8623C226.747 49.8623 226.556 52.2386 226.556 52.8373C226.556 56.1047 235.073 57.3566 235.073 65.0097C235.073 71.0309 231.254 74.9081 226.105 74.9081C219.926 74.9081 216.766 71.0624 216.766 71.0624L218.42 65.5959C218.42 65.5959 221.668 68.3846 224.409 68.3846C226.2 68.3846 226.929 66.9745 226.929 65.9442C226.929 61.6822 219.941 61.4921 219.941 54.4888C219.941 48.5945 224.172 42.8905 232.712 42.8905C236.002 42.8905 237.628 43.833 237.628 43.833Z" fill="white"/>
</g>
</g>
</g>
<g filter="url(#filter2_i_166_612)">
<rect x="0.0794678" y="0.380371" width="104.914" height="104.914" rx="26.2285" fill="url(#paint1_linear_166_612)"/>
</g>
<path d="M139.863 71.3586V34.6642H147.164V71.3586H139.863ZM125.18 56.6483V49.3474H161.875V56.6483H125.18Z" fill="url(#paint2_linear_166_612)"/>
<path d="M76.5102 44.8678C76.5109 46.4074 76.2686 47.9375 75.7923 49.4015C75.7872 49.4133 75.7832 49.4255 75.7806 49.4381C75.7316 49.5477 75.5789 49.9145 75.3955 50.4764C74.9615 51.8149 74.3324 54.2707 74.4486 57.0261C74.4751 57.6093 74.5342 58.1906 74.6254 58.7673C74.6288 58.7752 74.631 58.7835 74.632 58.7921C74.7534 59.5249 74.9395 60.2456 75.188 60.9457C73.9232 60.0536 72.9149 58.826 72.1207 57.524C71.6476 56.7379 71.2351 55.9169 70.8866 55.0682C70.4111 53.9245 70.023 52.7465 69.7256 51.5441C69.7233 51.5417 69.7216 51.5388 69.7206 51.5356C69.7196 51.5325 69.7193 51.5291 69.7197 51.5258C69.6594 51.0523 69.5612 50.5844 69.426 50.1266C69.4231 50.1188 69.4211 50.1107 69.4202 50.1025C69.2807 49.603 69.1031 49.1149 68.8889 48.6426V48.6302C68.5018 47.7671 67.9981 46.9612 67.3918 46.2351C67.3846 46.2222 67.3763 46.21 67.367 46.1985C67.3612 46.1926 67.3553 46.1802 67.3488 46.1744C66.7686 45.3005 59.8437 35.9407 33.6359 43.0888C34.5378 42.0976 35.4901 41.1535 36.4891 40.2603C41.4771 35.8017 48.65 31.7626 58.7675 30.4372C59.2896 30.3719 59.8117 30.3066 60.3501 30.2538C61.5718 30.1317 62.8059 30.1135 64.0217 30.3027C67.498 30.843 70.6667 32.6076 72.9566 35.2782C75.2465 37.9489 76.5068 41.3499 76.5102 44.8678Z" fill="url(#paint3_linear_166_612)"/>
<path d="M68.0966 56.1039C67.4295 54.6546 66.9235 53.1365 66.5877 51.5767C64.7552 43.1449 57.6469 47.6904 55.7373 50.402C53.8944 53.0307 48.2773 61.7001 47.9288 62.2437C47.9235 62.2526 47.9174 62.2609 47.9105 62.2685C47.8315 62.3723 47.7519 62.4695 47.6723 62.574C45.3444 65.576 42.7973 66.4596 40.4811 66.3369L40.4876 66.3311C40.1241 66.3161 33.1562 65.0422 34.7322 57.2447C33.9073 58.7725 33.4551 59.9511 33.2723 60.4771C33.2071 60.6729 33.1744 60.7701 33.1744 60.7701C32.9798 61.3514 32.8376 61.949 32.7496 62.5557C32.6566 63.1639 32.6158 63.7789 32.6275 64.3941C32.6717 66.3703 33.2641 68.2953 34.3387 69.9544C35.982 72.5081 38.6825 74.3406 41.8229 74.7838C43.378 74.6095 44.8945 74.1844 46.3136 73.5249C48.1154 72.6882 49.6674 71.4052 50.9471 69.8898V69.8839L50.953 69.8774V69.8715H50.9589C50.9896 69.835 51.0692 69.741 51.1788 69.6105C51.9738 68.6889 52.8335 67.8253 53.7514 67.0261L53.7573 67.0202C53.9831 66.6841 63.2764 53.0901 71.0784 60.7551C69.8769 59.348 68.8737 57.7831 68.0966 56.1039ZM37.8726 71.3752L37.885 71.3569C37.9052 71.3778 37.8726 71.3719 37.8726 71.3719V71.3752Z" fill="url(#paint4_linear_166_612)"/>
<path d="M67.3513 46.1757C65.6803 44.1656 63.3307 42.8376 60.7468 42.4427C59.8671 42.3083 58.9632 42.32 58.077 42.4062C57.6854 42.4486 57.301 42.4916 56.9284 42.5399C51.3491 43.2735 47.0001 45.1367 43.6339 47.4098C41.3416 48.9639 39.2929 50.8499 37.5548 53.0059C37.5607 53.0125 37.5548 53.0125 37.5489 53.0183C36.4856 54.3401 35.5429 55.7545 34.7322 57.2447C33.9073 58.7725 33.455 59.9511 33.2723 60.4771C33.2071 60.6729 33.1744 60.7701 33.1744 60.7701C32.9798 61.3514 32.8376 61.949 32.7496 62.5557C32.6566 63.1639 32.6158 63.7789 32.6275 64.3941C32.6716 66.3703 33.2641 68.2954 34.3387 69.9544C35.982 72.5081 38.6825 74.3406 41.8229 74.7838C40.7987 74.9052 39.7645 74.9194 38.7373 74.8262C31.3353 74.1579 25.531 67.8889 25.3783 60.466C25.3383 58.7771 25.5927 57.0941 26.1301 55.4924C26.1301 55.4924 26.1725 55.3521 26.2704 55.0898C26.643 54.0142 27.8406 50.913 30.3577 47.2505C31.3543 45.7899 32.4505 44.3998 33.6384 43.0901C59.8488 35.942 66.7711 45.3018 67.3513 46.1757Z" fill="url(#paint5_linear_166_612)"/>
<path d="M79.6989 66.7527L79.6871 66.7586C79.4789 66.8506 76.2655 68.2374 72.1722 67.5045C71.4488 67.3777 70.7375 67.1895 70.046 66.9419C69.3158 66.6818 68.6087 66.3609 67.9322 65.9826C67.1988 65.5718 66.4871 65.1233 65.8001 64.6389C65.7619 64.6144 65.725 64.5879 65.6898 64.5592C63.1909 62.8487 60.5452 63.1052 58.1991 64.1135C56.5068 64.8405 54.9673 65.9643 53.7515 67.0216C53.9773 66.6855 63.2705 53.0915 71.0726 60.7564C71.0861 60.7694 71.0983 60.7836 71.1091 60.7989C71.3702 61.1043 71.6404 61.398 71.9092 61.6727C75.4986 65.3998 79.4424 66.6763 79.6871 66.7501C79.6906 66.7523 79.6948 66.7532 79.6989 66.7527Z" fill="url(#paint6_linear_166_612)"/>
<defs>
<filter id="filter0_i_166_612" x="183.546" y="0.380371" width="104.914" height="106.332" filterUnits="userSpaceOnUse" color-interpolation-filters="sRGB">
<feFlood flood-opacity="0" result="BackgroundImageFix"/>
<feBlend mode="normal" in="SourceGraphic" in2="BackgroundImageFix" result="shape"/>
<feColorMatrix in="SourceAlpha" type="matrix" values="0 0 0 0 0 0 0 0 0 0 0 0 0 0 0 0 0 0 127 0" result="hardAlpha"/>
<feOffset dy="1.41776"/>
<feGaussianBlur stdDeviation="0.708878"/>
<feComposite in2="hardAlpha" operator="arithmetic" k2="-1" k3="1"/>
<feColorMatrix type="matrix" values="0 0 0 0 1 0 0 0 0 1 0 0 0 0 1 0 0 0 0.25 0"/>
<feBlend mode="normal" in2="shape" result="effect1_innerShadow_166_612"/>
</filter>
<filter id="filter1_d_166_612" x="137.364" y="-38.2667" width="197.277" height="204.892" filterUnits="userSpaceOnUse" color-interpolation-filters="sRGB">
<feFlood flood-opacity="0" result="BackgroundImageFix"/>
<feColorMatrix in="SourceAlpha" type="matrix" values="0 0 0 0 0 0 0 0 0 0 0 0 0 0 0 0 0 0 127 0" result="hardAlpha"/>
<feOffset dy="11.3421"/>
<feGaussianBlur stdDeviation="35.4439"/>
<feComposite in2="hardAlpha" operator="out"/>
<feColorMatrix type="matrix" values="0 0 0 0 0.584314 0 0 0 0 0.74902 0 0 0 0 0.27451 0 0 0 0.42 0"/>
<feBlend mode="normal" in2="BackgroundImageFix" result="effect1_dropShadow_166_612"/>
<feBlend mode="normal" in="SourceGraphic" in2="effect1_dropShadow_166_612" result="shape"/>
</filter>
<filter id="filter2_i_166_612" x="0.0794678" y="0.380371" width="104.914" height="106.332" filterUnits="userSpaceOnUse" color-interpolation-filters="sRGB">
<feFlood flood-opacity="0" result="BackgroundImageFix"/>
<feBlend mode="normal" in="SourceGraphic" in2="BackgroundImageFix" result="shape"/>
<feColorMatrix in="SourceAlpha" type="matrix" values="0 0 0 0 0 0 0 0 0 0 0 0 0 0 0 0 0 0 127 0" result="hardAlpha"/>
<feOffset dy="1.41776"/>
<feGaussianBlur stdDeviation="0.708878"/>
<feComposite in2="hardAlpha" operator="arithmetic" k2="-1" k3="1"/>
<feColorMatrix type="matrix" values="0 0 0 0 1 0 0 0 0 1 0 0 0 0 1 0 0 0 0.25 0"/>
<feBlend mode="normal" in2="shape" result="effect1_innerShadow_166_612"/>
</filter>
<linearGradient id="paint0_linear_166_612" x1="183.546" y1="0.380371" x2="240.118" y2="126.909" gradientUnits="userSpaceOnUse">
<stop offset="0.2192" stop-color="#1B1D30"/>
<stop offset="0.7749" stop-color="#111120"/>
</linearGradient>
<linearGradient id="paint1_linear_166_612" x1="0.0794678" y1="0.380371" x2="56.6517" y2="126.909" gradientUnits="userSpaceOnUse">
<stop offset="0.2192" stop-color="#1B1D30"/>
<stop offset="0.7749" stop-color="#111120"/>
</linearGradient>
<linearGradient id="paint2_linear_166_612" x1="118.021" y1="8.8869" x2="188.918" y2="55.8452" gradientUnits="userSpaceOnUse">
<stop offset="0.3" stop-color="white"/>
<stop offset="1" stop-color="white" stop-opacity="0.38"/>
</linearGradient>
<linearGradient id="paint3_linear_166_612" x1="52.2707" y1="31.728" x2="60.3906" y2="64.5984" gradientUnits="userSpaceOnUse">
<stop stop-color="#24E5FF"/>
<stop offset="1" stop-color="#00B1FF"/>
</linearGradient>
<linearGradient id="paint4_linear_166_612" x1="35.7072" y1="67.776" x2="61.4412" y2="55.0186" gradientUnits="userSpaceOnUse">
<stop stop-color="#4225A3"/>
<stop offset="1" stop-color="#C696D2"/>
</linearGradient>
<linearGradient id="paint5_linear_166_612" x1="38.1865" y1="70.3969" x2="47.3147" y2="49.3918" gradientUnits="userSpaceOnUse">
<stop stop-color="#4BABFF"/>
<stop offset="1" stop-color="#1B00BA"/>
</linearGradient>
<linearGradient id="paint6_linear_166_612" x1="71.8055" y1="72.7535" x2="62.5677" y2="62.0865" gradientUnits="userSpaceOnUse">
<stop stop-color="#FCBA00"/>
<stop offset="1" stop-color="#F98800"/>
</linearGradient>
<clipPath id="clip0_166_612">
<rect x="183.546" y="0.380371" width="104.914" height="104.914" rx="26.2285" fill="white"/>
</clipPath>
</defs>
</svg>
