<svg width="82" height="81" viewBox="0 0 82 81" fill="none" xmlns="http://www.w3.org/2000/svg">
<g filter="url(#filter0_i_86_1263)">
<rect x="0.981445" y="0.194214" width="80.6124" height="80.6124" rx="20.1531" fill="url(#paint0_linear_86_1263)"/>
<path d="M63.071 33.5437C63.0716 34.9426 62.8515 36.3329 62.4187 37.6632C62.414 37.6739 62.4104 37.685 62.408 37.6964C62.3635 37.796 62.2248 38.1293 62.0581 38.6398C61.6638 39.856 61.0922 42.0874 61.1977 44.591C61.2219 45.121 61.2755 45.6491 61.3584 46.1731C61.3615 46.1803 61.3634 46.1879 61.3643 46.1956C61.4747 46.8615 61.6438 47.5164 61.8696 48.1525C60.7204 47.3419 59.8042 46.2265 59.0825 45.0435C58.6527 44.3292 58.2779 43.5832 57.9612 42.8121C57.5291 41.7729 57.1765 40.7025 56.9063 39.61C56.9042 39.6078 56.9027 39.6051 56.9017 39.6023C56.9008 39.5994 56.9005 39.5963 56.901 39.5934C56.8462 39.1631 56.7569 38.738 56.6341 38.322C56.6314 38.3149 56.6296 38.3076 56.6288 38.3001C56.502 37.8462 56.3406 37.4027 56.1461 36.9736V36.9623C55.7944 36.178 55.3366 35.4458 54.7858 34.786C54.7792 34.7744 54.7717 34.7633 54.7632 34.7528C54.7579 34.7475 54.7526 34.7362 54.7466 34.7309C54.2195 33.9369 47.9273 25.4323 24.1143 31.9273C24.9337 31.0266 25.7991 30.1688 26.7068 29.3573C31.239 25.306 37.7565 21.636 46.9495 20.4317C47.4239 20.3724 47.8983 20.3131 48.3875 20.265C49.4975 20.1541 50.6189 20.1375 51.7236 20.3095C54.8822 20.8004 57.7614 22.4037 59.8421 24.8304C61.9227 27.257 63.0679 30.3472 63.071 33.5437Z" fill="url(#paint1_linear_86_1263)"/>
<path d="M55.4262 43.7532C54.82 42.4363 54.3603 41.0569 54.0552 39.6396C52.3901 31.9783 45.9313 36.1084 44.1962 38.5723C42.5217 40.9608 37.4178 48.838 37.1012 49.332C37.0964 49.34 37.0908 49.3475 37.0846 49.3545C37.0128 49.4488 36.9405 49.5371 36.8681 49.632C34.753 52.3598 32.4386 53.1627 30.3341 53.0512L30.34 53.0458C30.0097 53.0322 23.6784 51.8747 25.1105 44.7897C24.3609 46.1779 23.95 47.2488 23.7839 47.7268C23.7246 47.9047 23.695 47.993 23.695 47.993C23.5181 48.5212 23.3889 49.0642 23.309 49.6154C23.2245 50.1681 23.1874 50.7269 23.1981 51.2859C23.2382 53.0815 23.7765 54.8306 24.7529 56.3381C26.246 58.6584 28.6998 60.3235 31.5532 60.7262C32.9662 60.5679 34.3442 60.1816 35.6336 59.5823C37.2708 58.8221 38.6809 57.6563 39.8437 56.2794V56.274L39.8491 56.2681V56.2628H39.8544C39.8823 56.2296 39.9546 56.1442 40.0543 56.0256C40.7766 55.1882 41.5578 54.4035 42.3918 53.6774L42.3971 53.672C42.6023 53.3666 51.0464 41.0148 58.1355 47.9794C57.0438 46.7009 56.1322 45.2789 55.4262 43.7532ZM27.9639 57.629L27.9752 57.6124C27.9935 57.6314 27.9639 57.626 27.9639 57.626V57.629Z" fill="url(#paint2_linear_86_1263)"/>
<path d="M54.7489 34.7321C53.2306 32.9057 51.0957 31.699 48.7479 31.3402C47.9486 31.2181 47.1273 31.2287 46.322 31.307C45.9662 31.3456 45.617 31.3847 45.2784 31.4286C40.2089 32.0951 36.2573 33.7881 33.1987 35.8534C31.1159 37.2655 29.2543 38.9792 27.675 40.9383C27.6804 40.9442 27.675 40.9442 27.6697 40.9495C26.7035 42.1505 25.847 43.4357 25.1104 44.7897C24.3608 46.1779 23.9499 47.2488 23.7839 47.7268C23.7246 47.9047 23.6949 47.993 23.6949 47.993C23.518 48.5212 23.3888 49.0642 23.3089 49.6154C23.2244 50.1681 23.1873 50.7269 23.198 51.2859C23.2381 53.0815 23.7764 54.8306 24.7528 56.3381C26.2459 58.6584 28.6997 60.3235 31.5531 60.7262C30.6225 60.8365 29.6829 60.8494 28.7495 60.7647C22.0239 60.1575 16.7499 54.4613 16.6111 47.7167C16.5748 46.1821 16.806 44.6529 17.2942 43.1975C17.2942 43.1975 17.3328 43.0701 17.4217 42.8317C17.7603 41.8544 18.8485 39.0366 21.1356 35.7087C22.0411 34.3816 23.0371 33.1185 24.1165 31.9285C47.932 25.4335 54.2218 33.9381 54.7489 34.7321Z" fill="url(#paint3_linear_86_1263)"/>
<path d="M65.9676 53.4289L65.9569 53.4343C65.7677 53.5179 62.8479 54.778 59.1287 54.1121C58.4714 53.9968 57.825 53.8258 57.1967 53.6009C56.5333 53.3645 55.8908 53.0729 55.2761 52.7292C54.6097 52.3559 53.963 51.9484 53.3388 51.5083C53.304 51.4861 53.2706 51.4619 53.2386 51.4359C50.968 49.8817 48.5641 50.1147 46.4323 51.0309C44.8947 51.6915 43.4958 52.7126 42.3911 53.6732C42.5963 53.3679 51.0404 41.016 58.1295 47.9806C58.1418 47.9924 58.1529 48.0053 58.1627 48.0191C58.3999 48.2967 58.6454 48.5635 58.8897 48.8131C62.1511 52.1997 65.7345 53.3596 65.9569 53.4266C65.9601 53.4285 65.9639 53.4294 65.9676 53.4289Z" fill="url(#paint4_linear_86_1263)"/>
<path d="M58.8881 48.8102C58.6438 48.5606 58.3995 48.2937 58.1611 48.0162C58.4187 48.2665 58.6614 48.5316 58.8881 48.8102Z" fill="url(#paint5_linear_86_1263)"/>
</g>
<defs>
<filter id="filter0_i_86_1263" x="0.981445" y="0.194214" width="80.6123" height="81.7018" filterUnits="userSpaceOnUse" color-interpolation-filters="sRGB">
<feFlood flood-opacity="0" result="BackgroundImageFix"/>
<feBlend mode="normal" in="SourceGraphic" in2="BackgroundImageFix" result="shape"/>
<feColorMatrix in="SourceAlpha" type="matrix" values="0 0 0 0 0 0 0 0 0 0 0 0 0 0 0 0 0 0 127 0" result="hardAlpha"/>
<feOffset dy="1.08936"/>
<feGaussianBlur stdDeviation="0.544678"/>
<feComposite in2="hardAlpha" operator="arithmetic" k2="-1" k3="1"/>
<feColorMatrix type="matrix" values="0 0 0 0 1 0 0 0 0 1 0 0 0 0 1 0 0 0 0.25 0"/>
<feBlend mode="normal" in2="shape" result="effect1_innerShadow_86_1263"/>
</filter>
<linearGradient id="paint0_linear_86_1263" x1="0.981445" y1="0.194214" x2="44.4497" y2="97.4142" gradientUnits="userSpaceOnUse">
<stop offset="0.2192" stop-color="#1B1D30"/>
<stop offset="0.7749" stop-color="#111120"/>
</linearGradient>
<linearGradient id="paint1_linear_86_1263" x1="41.0463" y1="21.6046" x2="48.4242" y2="51.4714" gradientUnits="userSpaceOnUse">
<stop stop-color="#24E5FF"/>
<stop offset="1" stop-color="#00B1FF"/>
</linearGradient>
<linearGradient id="paint2_linear_86_1263" x1="25.9964" y1="54.3587" x2="49.3789" y2="42.767" gradientUnits="userSpaceOnUse">
<stop stop-color="#4225A3"/>
<stop offset="1" stop-color="#C696D2"/>
</linearGradient>
<linearGradient id="paint3_linear_86_1263" x1="28.249" y1="56.7401" x2="36.5431" y2="37.6543" gradientUnits="userSpaceOnUse">
<stop stop-color="#4BABFF"/>
<stop offset="1" stop-color="#1B00BA"/>
</linearGradient>
<linearGradient id="paint4_linear_86_1263" x1="58.7954" y1="58.8814" x2="50.4017" y2="49.1891" gradientUnits="userSpaceOnUse">
<stop stop-color="#FCBA00"/>
<stop offset="1" stop-color="#F98800"/>
</linearGradient>
<linearGradient id="paint5_linear_86_1263" x1="58.4137" y1="47.9545" x2="58.6403" y2="48.8719" gradientUnits="userSpaceOnUse">
<stop stop-color="#FF326E"/>
<stop offset="1" stop-color="#FFBD98"/>
</linearGradient>
</defs>
</svg>
