<svg xmlns="http://www.w3.org/2000/svg" xmlns:xlink="http://www.w3.org/1999/xlink" viewBox="0 0 1000.21 823.52"><defs><style>.cls-1{fill:url(#linear-gradient);}.cls-2{fill:url(#linear-gradient-2);}.cls-3{fill:url(#linear-gradient-3);}.cls-4{fill:url(#linear-gradient-4);}.cls-5{fill:url(#linear-gradient-5);}.cls-6{fill:url(#linear-gradient-6);}</style><linearGradient id="linear-gradient" x1="527.17" y1="20.94" x2="672.19" y2="625.45" gradientUnits="userSpaceOnUse"><stop offset="0" stop-color="#24e5ff"/><stop offset="1" stop-color="#00b1ff"/></linearGradient><linearGradient id="linear-gradient-2" x1="190.26" y1="692.5" x2="664.03" y2="457.63" gradientUnits="userSpaceOnUse"><stop offset="0" stop-color="#4225a3"/><stop offset="1" stop-color="#c696d2"/></linearGradient><linearGradient id="linear-gradient-3" x1="854.89" y1="784.13" x2="684.81" y2="587.73" gradientUnits="userSpaceOnUse"><stop offset="0" stop-color="#fcba00"/><stop offset="1" stop-color="#f98800"/></linearGradient><linearGradient id="linear-gradient-4" x1="847.13" y1="562.72" x2="851.72" y2="581.31" gradientUnits="userSpaceOnUse"><stop offset="0" stop-color="#ff326e"/><stop offset="1" stop-color="#ffbd98"/></linearGradient><linearGradient id="linear-gradient-5" x1="96.17" y1="707.3" x2="516.81" y2="200.5" gradientUnits="userSpaceOnUse"><stop offset="0" stop-color="#4babff"/><stop offset="1" stop-color="#1b00ba"/></linearGradient><linearGradient id="linear-gradient-6" x1="832.68" y1="437.75" x2="839.97" y2="468.17" xlink:href="#linear-gradient"/></defs><g id="Layer_2" data-name="Layer 2"><g id="Layer_1-2" data-name="Layer 1"><path class="cls-1" d="M941.43,270.64a273.82,273.82,0,0,1-13.1,83.62.92.92,0,0,0-.21.63c-.84,1.91-3.8,8.66-7.18,19-7.81,24.71-19.42,69.9-17.31,120.57a274.62,274.62,0,0,0,3.16,32.1l.22.42a223.76,223.76,0,0,0,10.13,39.7c-23.23-16.47-41.81-39.06-56.38-62.92a321.53,321.53,0,0,1-20.27-39.7,8.86,8.86,0,0,1-1.06-1.9,26.61,26.61,0,0,0-1.48-3.8c-1.05-2.33-1.9-4.86-3-7.18,0-.22-.21-.43-.21-.64-.21-.42-.42-1.05-.64-1.48-1.47-4.64-3.16-9.29-4.85-13.72,0-.21,0-.21-.21-.42C803.75,349,777.35,302.31,773.34,295.56c0-.21,0-.21-.21-.43a.65.65,0,0,1-.21-.42c-.21-.42-.64-.84-.85-1.26,0-.22-.21-.43-.42-.85C754.76,264.94,564.92-26,204.67,186,296.53,103.82,428.51,29.49,614.75,5c9.72-1.27,19.43-2.33,29.14-3.38,22.6-2.12,45.41-2.54,67.79,1a271.2,271.2,0,0,1,229.75,268Z"/><path class="cls-2" d="M786.64,477.58a390.73,390.73,0,0,1-27.87-83.41C725,239,594.06,322.8,559,372.63,525,421,421.75,580.63,415.2,590.55a1.69,1.69,0,0,0-.21.64c-1.48,1.9-2.95,3.59-4.43,5.49-42.87,55.32-89.75,71.58-132.4,69.26-7.82-.63-134.72-24.5-105.79-167.24A424.16,424.16,0,0,0,145.55,558c-1.27,3.59-1.9,5.49-1.9,5.49a187.31,187.31,0,0,0-7.82,33A194.29,194.29,0,0,0,165,732.67c30.41,46.88,80,80.66,137.9,88.9a259.57,259.57,0,0,0,82.56-23.23c33.15-15.42,61.87-39.07,85.31-66.94l.21-.21c.64-.85,2.11-2.32,4-4.86a456,456,0,0,1,47.52-47.72C526.7,672.49,697.74,422,841.33,563.1A365.15,365.15,0,0,1,786.64,477.58Z"/><path class="cls-3" d="M1000.21,673.65l-.22.11c-3.83,1.69-63,27.22-138.36,13.72a237.35,237.35,0,0,1-39.14-10.35,256.84,256.84,0,0,1-38.92-17.66,451.79,451.79,0,0,1-39.26-24.74,21.45,21.45,0,0,1-2-1.47c-46-31.49-94.71-26.77-137.91-8.21-31.16,13.39-59.5,34.09-81.89,53.55,4.17-6.19,175.25-256.47,318.89-115.41a4,4,0,0,1,.68.78c4.84,5.63,9.79,11,14.73,16.09,66,68.62,138.7,92.12,143.2,93.47A.33.33,0,0,0,1000.21,673.65Z"/><path class="cls-4" d="M856.79,580.06C851.85,575,846.9,569.6,842.06,564A188.63,188.63,0,0,1,856.79,580.06Z"/><path class="cls-5" d="M772.92,294.71a197.43,197.43,0,0,0-121.63-68.63c-16.26-2.53-32.95-2.32-49.21-.63-7.18.63-14.14,1.48-21.11,2.32-102.63,13.52-182.87,47.94-244.74,89.75-4.65,3.17-9.29,6.33-13.73,9.71a510.51,510.51,0,0,0-98.19,93.34l-.21.21a524.65,524.65,0,0,0-51.73,77.92A424.16,424.16,0,0,0,145.55,558c-1.27,3.59-1.9,5.49-1.9,5.49a187.31,187.31,0,0,0-7.82,33A194.29,194.29,0,0,0,165,732.67c30.41,46.88,80,80.66,137.9,88.9a268.48,268.48,0,0,1-56.81.84C109.86,810,3,694.66.05,557.82A267.69,267.69,0,0,1,14,466.39s.85-2.54,2.54-7.39c5.91-16.68,22.38-60,55.32-113.82,6.12-9.92,12.67-20.06,19.85-30.62a747.45,747.45,0,0,1,60.6-76.65A719.17,719.17,0,0,1,204.67,186c360.25-212,550.09,79,567,106.64.21.42.42.63.42.85C772.28,293.87,772.71,294.29,772.92,294.71Z"/><path class="cls-6" d="M839.43,462.17c-1.48-3.17-2.95-6.76-4.43-11,1,2.32,1.9,4.85,3,7.18A26.61,26.61,0,0,1,839.43,462.17Z"/></g></g></svg>